<?xml version="1.0" encoding="UTF-8"?>
<svg width="19px" height="13px" viewBox="0 0 19 13" version="1.1" xmlns="http://www.w3.org/2000/svg" xmlns:xlink="http://www.w3.org/1999/xlink">
    <!-- Generator: Sketch 41 (35326) - http://www.bohemiancoding.com/sketch -->
    <title>Message Icon</title>
    <desc>Created with Sketch.</desc>
    <defs></defs>
    <g id="Landing-page" stroke="none" stroke-width="1" fill="none" fill-rule="evenodd">
        <g id="dashborad-profile" transform="translate(-1039.000000, -61.000000)" fill="#FFFFFF">
            <g id="Header">
                <g id="Messages" transform="translate(1039.000000, 55.000000)">
                    <path d="M16.5,18.5 L2.5,18.5 C1.4,18.5 0.5,17.6 0.5,16.5 L0.5,9.5 C0.5,8.7 0.4,7.1 0.9,6.9 C1,7.2 1.8,8.4 2,8.6 L8,13.9 C8.4,14.3 9,14.4 9.5,14.3 C10.1,14.3 10.6,14.1 11.1,13.7 L17.3,8.5 C17.5,8.3 18.1,7.1 18.2,6.8 C18.6,7.3 18.6,8.8 18.6,9.4 L18.6,16.4 C18.5,17.6 17.6,18.5 16.5,18.5 Z M17.3,7.6 L11.1,12.8 C10.7,13.2 10.1,13.7 9.5,13.7 C9,13.7 8.4,13.4 8,13 L2,7.7 C1.7,7.4 1.6,7 1.5,6.6 L9.5,6.6 L17.8,6.6 C17.7,6.9 17.6,7.3 17.3,7.6 Z" id="Message-Icon"></path>
                </g>
            </g>
        </g>
    </g>
</svg>