<?xml version="1.0" encoding="UTF-8"?>
<svg width="15px" height="19px" viewBox="0 0 15 19" version="1.1" xmlns="http://www.w3.org/2000/svg" xmlns:xlink="http://www.w3.org/1999/xlink">
    <!-- Generator: Sketch 41 (35326) - http://www.bohemiancoding.com/sketch -->
    <title>Icon</title>
    <desc>Created with Sketch.</desc>
    <defs></defs>
    <g id="Landing-page" stroke="none" stroke-width="1" fill="none" fill-rule="evenodd">
        <g id="dashborad-profile" transform="translate(-884.000000, -60.000000)" fill="#FFFFFF">
            <g id="Header">
                <g id="Notifications" transform="translate(884.000000, 55.000000)">
                    <path d="M14.5,19 C14.5,20.4 11.8,20.5 7.5,20.5 C3.2,20.5 0.5,20.4 0.5,19 C0.5,18.3 1,17.4 2.2,16.7 C2.2,15.8 2.3,14.7 2.3,13.5 C2.3,10.6 3.6,8.1 5.6,7 L5.6,7 C5.6,6.2 6.5,5.5 7.6,5.5 C8.7,5.5 9.6,6.2 9.6,7 L9.6,7 C11.5,8 12.9,10.5 12.9,13.5 C12.9,14.6 13,15.7 12.9,16.7 C14,17.4 14.5,18.3 14.5,19 L14.5,19 Z M7.5,21.5 C8.7,21.5 9.5,21.2 9.5,22 C9.5,22.8 8.6,23.5 7.5,23.5 C6.4,23.5 5.5,22.8 5.5,22 C5.5,21.2 6.1,21.5 7.5,21.5 L7.5,21.5 Z" id="Icon"></path>
                </g>
            </g>
        </g>
    </g>
</svg>